<svg width="16" height="16" viewBox="0 0 16 16" fill="none" xmlns="http://www.w3.org/2000/svg">
<g clip-path="url(#clip0_248_500)">
<path d="M3.91743 9.53038L3.40691 11.4362L1.54095 11.4757C0.9833 10.4414 0.666992 9.25801 0.666992 8.00046C0.666992 6.78442 0.962732 5.63767 1.48695 4.62793H1.48735L3.14858 4.93249L3.8763 6.58375C3.72399 7.02779 3.64097 7.50446 3.64097 8.00046C3.64103 8.53877 3.73854 9.05454 3.91743 9.53038Z" fill="#FBBB00"/>
<path d="M15.2061 6.62988C15.2903 7.07349 15.3342 7.53163 15.3342 7.99984C15.3342 8.52486 15.279 9.03699 15.1739 9.53099C14.8169 11.212 13.8841 12.6799 12.5919 13.7186L12.5915 13.7182L10.4991 13.6115L10.203 11.7628C11.0604 11.26 11.7305 10.473 12.0834 9.53099H8.16211V6.62988H12.1406H15.2061Z" fill="#518EF8"/>
<path d="M12.591 13.7187L12.5914 13.7191C11.3347 14.7293 9.73822 15.3337 8.00039 15.3337C5.20768 15.3337 2.77963 13.7727 1.54102 11.4756L3.9175 9.53027C4.5368 11.1831 6.1312 12.3597 8.00039 12.3597C8.80382 12.3597 9.55652 12.1425 10.2024 11.7633L12.591 13.7187Z" fill="#28B446"/>
<path d="M12.6805 2.35526L10.3049 4.3002C9.63641 3.88237 8.84624 3.641 7.9997 3.641C6.0882 3.641 4.46398 4.87154 3.87571 6.58362L1.48673 4.62779H1.48633C2.70681 2.27468 5.16548 0.666992 7.9997 0.666992C9.77904 0.666992 11.4105 1.30081 12.6805 2.35526Z" fill="#F14336"/>
</g>
<defs>
<clipPath id="clip0_248_500">
<rect x="0.666992" y="0.666992" width="14.6667" height="14.6667" rx="7.33333" fill="white"/>
</clipPath>
</defs>
</svg>
